<svg width="1088" height="293" viewBox="0 0 1088 293" fill="none" xmlns="http://www.w3.org/2000/svg">
<rect x="0.5" y="0.5" width="1087" height="292" stroke="#FEFEFE"/>
<g filter="url(#filter0_d_122_5)">
<circle cx="66.5" cy="247.5" r="37.5" fill="#9D99A3"/>
<circle cx="136.5" cy="45.5" r="37.5" fill="#9D99A3"/>
<circle cx="363.5" cy="45.5" r="37.5" fill="#9D99A3"/>
<circle cx="429.5" cy="247.5" r="37.5" fill="#9D99A3"/>
<ellipse cx="248" cy="154.5" rx="41" ry="40.5" fill="#9D99A3"/>
<line x1="12" y1="-12" x2="100.916" y2="-12" transform="matrix(0.892229 -0.451584 0.463294 0.886205 109.741 233.347)" stroke="#9D99A3" stroke-width="24" stroke-linecap="round"/>
<line x1="12" y1="-12" x2="102.852" y2="-12" transform="matrix(0.899419 0.437088 -0.448613 0.893726 284.083 182.355)" stroke="#9D99A3" stroke-width="24" stroke-linecap="round"/>
<line x1="12" y1="-12" x2="62.1778" y2="-12" transform="matrix(0.712806 -0.701361 0.712806 0.701361 289.085 132.439)" stroke="#9D99A3" stroke-width="24" stroke-linecap="round"/>
<line x1="12" y1="-12" x2="60.173" y2="-12" transform="matrix(-0.712806 -0.701361 0.712806 -0.701361 222.635 119.081)" stroke="#9D99A3" stroke-width="24" stroke-linecap="round"/>
<line x1="12" y1="-12" x2="115.353" y2="-12" transform="matrix(0.319516 -0.947581 0.958638 0.284629 90.4487 208.358)" stroke="#9D99A3" stroke-width="24" stroke-linecap="round"/>
<line x1="12" y1="-12" x2="118.711" y2="-12" transform="matrix(-0.311076 -0.950385 0.953281 -0.302084 423.348 203.233)" stroke="#9D99A3" stroke-width="24" stroke-linecap="round"/>
<path d="M504.091 83.9091H528.364L554 146.455H555.091L580.727 83.9091H605V177H585.909V116.409H585.136L561.045 176.545H548.045L523.955 116.182H523.182V177H504.091V83.9091ZM653.901 177H632.81L664.947 83.9091H690.31L722.401 177H701.31L677.992 105.182H677.265L653.901 177ZM652.583 140.409H702.401V155.773H652.583V140.409ZM807.598 114C806.962 111.788 806.068 109.833 804.916 108.136C803.765 106.409 802.356 104.955 800.689 103.773C799.053 102.561 797.174 101.636 795.053 101C792.962 100.364 790.644 100.045 788.098 100.045C783.341 100.045 779.159 101.227 775.553 103.591C771.977 105.955 769.189 109.394 767.189 113.909C765.189 118.394 764.189 123.879 764.189 130.364C764.189 136.848 765.174 142.364 767.144 146.909C769.113 151.455 771.901 154.924 775.507 157.318C779.113 159.682 783.371 160.864 788.28 160.864C792.735 160.864 796.538 160.076 799.689 158.5C802.871 156.894 805.295 154.636 806.962 151.727C808.659 148.818 809.507 145.379 809.507 141.409L813.507 142H789.507V127.182H828.462V138.909C828.462 147.091 826.735 154.121 823.28 160C819.825 165.848 815.068 170.364 809.007 173.545C802.947 176.697 796.007 178.273 788.189 178.273C779.462 178.273 771.795 176.348 765.189 172.5C758.583 168.621 753.432 163.121 749.735 156C746.068 148.848 744.235 140.364 744.235 130.545C744.235 123 745.325 116.273 747.507 110.364C749.719 104.424 752.81 99.3939 756.78 95.2727C760.75 91.1515 765.371 88.0151 770.644 85.8636C775.916 83.7121 781.628 82.6364 787.78 82.6364C793.053 82.6364 797.962 83.4091 802.507 84.9545C807.053 86.4697 811.083 88.6212 814.598 91.4091C818.144 94.197 821.038 97.5151 823.28 101.364C825.522 105.182 826.962 109.394 827.598 114H807.598ZM892.886 177H859.886V83.9091H893.159C902.522 83.9091 910.583 85.7727 917.34 89.5C924.098 93.197 929.295 98.5151 932.931 105.455C936.598 112.394 938.431 120.697 938.431 130.364C938.431 140.061 936.598 148.394 932.931 155.364C929.295 162.333 924.068 167.682 917.25 171.409C910.462 175.136 902.34 177 892.886 177ZM879.568 160.136H892.068C897.886 160.136 902.78 159.106 906.75 157.045C910.75 154.955 913.75 151.727 915.75 147.364C917.78 142.97 918.795 137.303 918.795 130.364C918.795 123.485 917.78 117.864 915.75 113.5C913.75 109.136 910.765 105.924 906.795 103.864C902.825 101.803 897.931 100.773 892.113 100.773H879.568V160.136ZM980.446 177H959.355L991.492 83.9091H1016.86L1048.95 177H1027.86L1004.54 105.182H1003.81L980.446 177ZM979.128 140.409H1028.95V155.773H979.128V140.409Z" fill="#9D99A3"/>
<path d="M517.517 204.545H522.068L526.875 216.273H527.08L531.886 204.545H536.438V222H532.858V210.639H532.713L528.196 221.915H525.759L521.241 210.597H521.097V222H517.517V204.545ZM550.205 216.426V208.909H553.835V222H550.35V219.622H550.213C549.918 220.389 549.426 221.006 548.739 221.472C548.057 221.937 547.225 222.17 546.242 222.17C545.367 222.17 544.597 221.972 543.932 221.574C543.267 221.176 542.747 220.611 542.372 219.878C542.003 219.145 541.815 218.267 541.81 217.244V208.909H545.44V216.597C545.446 217.369 545.654 217.98 546.063 218.429C546.472 218.878 547.02 219.102 547.708 219.102C548.145 219.102 548.554 219.003 548.935 218.804C549.315 218.599 549.622 218.298 549.855 217.901C550.094 217.503 550.21 217.011 550.205 216.426ZM562.77 204.545V222H559.139V204.545H562.77ZM575.042 208.909V211.636H567.158V208.909H575.042ZM568.948 205.773H572.579V217.977C572.579 218.312 572.63 218.574 572.732 218.761C572.834 218.943 572.976 219.071 573.158 219.145C573.346 219.219 573.562 219.256 573.806 219.256C573.976 219.256 574.147 219.241 574.317 219.213C574.488 219.179 574.618 219.153 574.709 219.136L575.28 221.838C575.098 221.895 574.843 221.96 574.513 222.034C574.184 222.114 573.783 222.162 573.312 222.179C572.437 222.213 571.669 222.097 571.01 221.83C570.357 221.562 569.848 221.148 569.485 220.585C569.121 220.023 568.942 219.312 568.948 218.455V205.773ZM579.807 222V208.909H583.437V222H579.807ZM581.631 207.222C581.091 207.222 580.628 207.043 580.241 206.685C579.861 206.321 579.67 205.886 579.67 205.381C579.67 204.881 579.861 204.452 580.241 204.094C580.628 203.73 581.091 203.548 581.631 203.548C582.17 203.548 582.631 203.73 583.011 204.094C583.398 204.452 583.591 204.881 583.591 205.381C583.591 205.886 583.398 206.321 583.011 206.685C582.631 207.043 582.17 207.222 581.631 207.222ZM596.902 213.392V216.273H588.942V213.392H596.902ZM605.472 222H601.518L607.543 204.545H612.299L618.316 222H614.362L609.989 208.534H609.853L605.472 222ZM605.225 215.139H614.566V218.02H605.225V215.139ZM628.037 227.182C626.861 227.182 625.853 227.02 625.012 226.696C624.176 226.378 623.512 225.943 623.017 225.392C622.523 224.841 622.202 224.222 622.054 223.534L625.412 223.082C625.514 223.344 625.676 223.588 625.898 223.815C626.12 224.043 626.412 224.224 626.776 224.361C627.145 224.503 627.594 224.574 628.122 224.574C628.912 224.574 629.563 224.381 630.074 223.994C630.591 223.614 630.85 222.974 630.85 222.077V219.682H630.696C630.537 220.045 630.299 220.389 629.98 220.713C629.662 221.037 629.253 221.301 628.753 221.506C628.253 221.71 627.657 221.812 626.963 221.812C625.98 221.812 625.086 221.585 624.279 221.131C623.478 220.67 622.838 219.969 622.361 219.026C621.889 218.077 621.654 216.878 621.654 215.429C621.654 213.946 621.895 212.707 622.378 211.713C622.861 210.719 623.503 209.974 624.304 209.48C625.111 208.986 625.995 208.739 626.955 208.739C627.688 208.739 628.301 208.864 628.796 209.114C629.29 209.358 629.688 209.665 629.989 210.034C630.296 210.398 630.532 210.756 630.696 211.108H630.833V208.909H634.438V222.128C634.438 223.241 634.165 224.173 633.62 224.923C633.074 225.673 632.318 226.236 631.353 226.611C630.392 226.991 629.287 227.182 628.037 227.182ZM628.114 219.085C628.699 219.085 629.193 218.94 629.597 218.651C630.006 218.355 630.318 217.935 630.534 217.389C630.756 216.838 630.867 216.179 630.867 215.412C630.867 214.645 630.759 213.98 630.543 213.418C630.327 212.849 630.014 212.409 629.605 212.097C629.196 211.784 628.699 211.628 628.114 211.628C627.517 211.628 627.014 211.79 626.605 212.114C626.196 212.432 625.887 212.875 625.676 213.443C625.466 214.011 625.361 214.668 625.361 215.412C625.361 216.168 625.466 216.821 625.676 217.372C625.892 217.918 626.202 218.341 626.605 218.642C627.014 218.937 627.517 219.085 628.114 219.085ZM645.693 222.256C644.346 222.256 643.187 221.983 642.216 221.438C641.25 220.886 640.505 220.108 639.983 219.102C639.46 218.091 639.199 216.895 639.199 215.514C639.199 214.168 639.46 212.986 639.983 211.969C640.505 210.952 641.241 210.159 642.19 209.591C643.145 209.023 644.264 208.739 645.548 208.739C646.412 208.739 647.216 208.878 647.96 209.156C648.71 209.429 649.363 209.841 649.92 210.392C650.483 210.943 650.92 211.636 651.233 212.472C651.545 213.301 651.701 214.273 651.701 215.386V216.384H640.647V214.134H648.284C648.284 213.611 648.17 213.148 647.943 212.744C647.716 212.341 647.4 212.026 646.997 211.798C646.599 211.565 646.136 211.449 645.608 211.449C645.057 211.449 644.568 211.577 644.142 211.832C643.721 212.082 643.392 212.42 643.153 212.847C642.914 213.267 642.792 213.736 642.787 214.253V216.392C642.787 217.04 642.906 217.599 643.145 218.071C643.389 218.543 643.733 218.906 644.176 219.162C644.619 219.418 645.145 219.545 645.753 219.545C646.156 219.545 646.525 219.489 646.861 219.375C647.196 219.261 647.483 219.091 647.721 218.864C647.96 218.636 648.142 218.358 648.267 218.028L651.625 218.25C651.454 219.057 651.105 219.761 650.576 220.364C650.054 220.96 649.378 221.426 648.548 221.761C647.724 222.091 646.772 222.256 645.693 222.256ZM660.101 214.432V222H656.471V208.909H659.931V211.219H660.084C660.374 210.457 660.86 209.855 661.542 209.412C662.224 208.963 663.05 208.739 664.022 208.739C664.931 208.739 665.724 208.938 666.4 209.335C667.076 209.733 667.601 210.301 667.976 211.04C668.351 211.773 668.539 212.648 668.539 213.665V222H664.908V214.312C664.914 213.511 664.709 212.886 664.295 212.438C663.88 211.983 663.309 211.756 662.582 211.756C662.093 211.756 661.661 211.861 661.286 212.071C660.917 212.281 660.627 212.588 660.417 212.991C660.212 213.389 660.107 213.869 660.101 214.432ZM680.763 208.909V211.636H672.88V208.909H680.763ZM674.67 205.773H678.3V217.977C678.3 218.312 678.352 218.574 678.454 218.761C678.556 218.943 678.698 219.071 678.88 219.145C679.067 219.219 679.283 219.256 679.528 219.256C679.698 219.256 679.869 219.241 680.039 219.213C680.21 219.179 680.34 219.153 680.431 219.136L681.002 221.838C680.82 221.895 680.565 221.96 680.235 222.034C679.906 222.114 679.505 222.162 679.033 222.179C678.158 222.213 677.391 222.097 676.732 221.83C676.079 221.562 675.57 221.148 675.207 220.585C674.843 220.023 674.664 219.312 674.67 218.455V205.773ZM705.125 210.188C705.006 209.773 704.838 209.406 704.622 209.088C704.407 208.764 704.142 208.491 703.83 208.27C703.523 208.043 703.171 207.869 702.773 207.75C702.381 207.631 701.946 207.571 701.469 207.571C700.577 207.571 699.793 207.793 699.117 208.236C698.446 208.679 697.924 209.324 697.549 210.17C697.174 211.011 696.986 212.04 696.986 213.256C696.986 214.472 697.171 215.506 697.54 216.358C697.909 217.21 698.432 217.861 699.108 218.31C699.784 218.753 700.583 218.974 701.503 218.974C702.338 218.974 703.051 218.827 703.642 218.531C704.239 218.23 704.693 217.807 705.006 217.261C705.324 216.716 705.483 216.071 705.483 215.327L706.233 215.438H701.733V212.659H709.037V214.858C709.037 216.392 708.713 217.71 708.066 218.812C707.418 219.909 706.526 220.756 705.389 221.352C704.253 221.943 702.952 222.239 701.486 222.239C699.85 222.239 698.412 221.878 697.174 221.156C695.935 220.429 694.969 219.398 694.276 218.062C693.588 216.722 693.245 215.131 693.245 213.29C693.245 211.875 693.449 210.614 693.858 209.506C694.273 208.392 694.853 207.449 695.597 206.676C696.341 205.903 697.208 205.315 698.196 204.912C699.185 204.509 700.256 204.307 701.409 204.307C702.398 204.307 703.318 204.452 704.171 204.741C705.023 205.026 705.779 205.429 706.438 205.952C707.103 206.474 707.645 207.097 708.066 207.818C708.486 208.534 708.756 209.324 708.875 210.188H705.125ZM720.107 222.256C718.76 222.256 717.601 221.983 716.63 221.438C715.664 220.886 714.919 220.108 714.397 219.102C713.874 218.091 713.613 216.895 713.613 215.514C713.613 214.168 713.874 212.986 714.397 211.969C714.919 210.952 715.655 210.159 716.604 209.591C717.559 209.023 718.678 208.739 719.962 208.739C720.826 208.739 721.63 208.878 722.374 209.156C723.124 209.429 723.777 209.841 724.334 210.392C724.897 210.943 725.334 211.636 725.647 212.472C725.959 213.301 726.115 214.273 726.115 215.386V216.384H715.062V214.134H722.698C722.698 213.611 722.584 213.148 722.357 212.744C722.13 212.341 721.814 212.026 721.411 211.798C721.013 211.565 720.55 211.449 720.022 211.449C719.471 211.449 718.982 211.577 718.556 211.832C718.135 212.082 717.806 212.42 717.567 212.847C717.329 213.267 717.206 213.736 717.201 214.253V216.392C717.201 217.04 717.32 217.599 717.559 218.071C717.803 218.543 718.147 218.906 718.59 219.162C719.033 219.418 719.559 219.545 720.167 219.545C720.57 219.545 720.939 219.489 721.275 219.375C721.61 219.261 721.897 219.091 722.135 218.864C722.374 218.636 722.556 218.358 722.681 218.028L726.039 218.25C725.868 219.057 725.519 219.761 724.99 220.364C724.468 220.96 723.792 221.426 722.962 221.761C722.138 222.091 721.187 222.256 720.107 222.256ZM734.515 214.432V222H730.885V208.909H734.345V211.219H734.498C734.788 210.457 735.274 209.855 735.956 209.412C736.638 208.963 737.464 208.739 738.436 208.739C739.345 208.739 740.138 208.938 740.814 209.335C741.49 209.733 742.015 210.301 742.39 211.04C742.765 211.773 742.953 212.648 742.953 213.665V222H739.322V214.312C739.328 213.511 739.123 212.886 738.709 212.438C738.294 211.983 737.723 211.756 736.996 211.756C736.507 211.756 736.075 211.861 735.7 212.071C735.331 212.281 735.041 212.588 734.831 212.991C734.626 213.389 734.521 213.869 734.515 214.432ZM754.18 222.256C752.834 222.256 751.675 221.983 750.703 221.438C749.737 220.886 748.993 220.108 748.47 219.102C747.947 218.091 747.686 216.895 747.686 215.514C747.686 214.168 747.947 212.986 748.47 211.969C748.993 210.952 749.729 210.159 750.678 209.591C751.632 209.023 752.751 208.739 754.036 208.739C754.899 208.739 755.703 208.878 756.447 209.156C757.197 209.429 757.851 209.841 758.408 210.392C758.97 210.943 759.408 211.636 759.72 212.472C760.033 213.301 760.189 214.273 760.189 215.386V216.384H749.135V214.134H756.771C756.771 213.611 756.658 213.148 756.43 212.744C756.203 212.341 755.888 212.026 755.484 211.798C755.087 211.565 754.624 211.449 754.095 211.449C753.544 211.449 753.055 211.577 752.629 211.832C752.209 212.082 751.879 212.42 751.641 212.847C751.402 213.267 751.28 213.736 751.274 214.253V216.392C751.274 217.04 751.393 217.599 751.632 218.071C751.876 218.543 752.22 218.906 752.663 219.162C753.107 219.418 753.632 219.545 754.24 219.545C754.643 219.545 755.013 219.489 755.348 219.375C755.683 219.261 755.97 219.091 756.209 218.864C756.447 218.636 756.629 218.358 756.754 218.028L760.112 218.25C759.942 219.057 759.592 219.761 759.064 220.364C758.541 220.96 757.865 221.426 757.036 221.761C756.212 222.091 755.26 222.256 754.18 222.256ZM764.958 222V208.909H768.478V211.193H768.614C768.853 210.381 769.254 209.767 769.816 209.352C770.379 208.932 771.026 208.722 771.759 208.722C771.941 208.722 772.137 208.733 772.347 208.756C772.558 208.778 772.742 208.81 772.901 208.849V212.071C772.731 212.02 772.495 211.974 772.194 211.935C771.893 211.895 771.617 211.875 771.367 211.875C770.833 211.875 770.356 211.991 769.936 212.224C769.521 212.452 769.191 212.77 768.947 213.179C768.708 213.588 768.589 214.06 768.589 214.594V222H764.958ZM780.536 222.247C779.701 222.247 778.957 222.102 778.304 221.812C777.65 221.517 777.133 221.082 776.752 220.509C776.377 219.929 776.19 219.207 776.19 218.344C776.19 217.616 776.323 217.006 776.59 216.511C776.858 216.017 777.221 215.619 777.681 215.318C778.142 215.017 778.664 214.79 779.25 214.636C779.84 214.483 780.46 214.375 781.108 214.312C781.869 214.233 782.483 214.159 782.948 214.091C783.414 214.017 783.752 213.909 783.963 213.767C784.173 213.625 784.278 213.415 784.278 213.136V213.085C784.278 212.545 784.108 212.128 783.767 211.832C783.431 211.537 782.954 211.389 782.335 211.389C781.681 211.389 781.161 211.534 780.775 211.824C780.389 212.108 780.133 212.466 780.008 212.898L776.65 212.625C776.821 211.83 777.156 211.142 777.656 210.562C778.156 209.977 778.801 209.528 779.59 209.216C780.386 208.898 781.306 208.739 782.352 208.739C783.079 208.739 783.775 208.824 784.44 208.994C785.11 209.165 785.704 209.429 786.221 209.787C786.744 210.145 787.156 210.605 787.457 211.168C787.758 211.724 787.909 212.392 787.909 213.17V222H784.465V220.185H784.363C784.153 220.594 783.872 220.955 783.519 221.267C783.167 221.574 782.744 221.815 782.25 221.991C781.755 222.162 781.184 222.247 780.536 222.247ZM781.576 219.741C782.11 219.741 782.582 219.636 782.991 219.426C783.4 219.21 783.721 218.92 783.954 218.557C784.187 218.193 784.304 217.781 784.304 217.321V215.932C784.19 216.006 784.034 216.074 783.835 216.136C783.642 216.193 783.423 216.247 783.179 216.298C782.934 216.344 782.69 216.386 782.446 216.426C782.201 216.46 781.98 216.491 781.781 216.52C781.355 216.582 780.983 216.682 780.664 216.818C780.346 216.955 780.099 217.139 779.923 217.372C779.747 217.599 779.659 217.884 779.659 218.224C779.659 218.719 779.838 219.097 780.196 219.358C780.559 219.614 781.019 219.741 781.576 219.741ZM800.089 208.909V211.636H792.205V208.909H800.089ZM793.995 205.773H797.625V217.977C797.625 218.312 797.677 218.574 797.779 218.761C797.881 218.943 798.023 219.071 798.205 219.145C798.392 219.219 798.608 219.256 798.853 219.256C799.023 219.256 799.194 219.241 799.364 219.213C799.535 219.179 799.665 219.153 799.756 219.136L800.327 221.838C800.145 221.895 799.89 221.96 799.56 222.034C799.231 222.114 798.83 222.162 798.358 222.179C797.483 222.213 796.716 222.097 796.057 221.83C795.404 221.562 794.895 221.148 794.532 220.585C794.168 220.023 793.989 219.312 793.995 218.455V205.773ZM804.854 222V208.909H808.484V222H804.854ZM806.677 207.222C806.138 207.222 805.675 207.043 805.288 206.685C804.908 206.321 804.717 205.886 804.717 205.381C804.717 204.881 804.908 204.452 805.288 204.094C805.675 203.73 806.138 203.548 806.677 203.548C807.217 203.548 807.677 203.73 808.058 204.094C808.444 204.452 808.638 204.881 808.638 205.381C808.638 205.886 808.444 206.321 808.058 206.685C807.677 207.043 807.217 207.222 806.677 207.222ZM825.997 208.909L821.42 222H817.33L812.753 208.909H816.588L819.307 218.276H819.443L822.153 208.909H825.997ZM835.799 222.256C834.453 222.256 833.293 221.983 832.322 221.438C831.356 220.886 830.612 220.108 830.089 219.102C829.566 218.091 829.305 216.895 829.305 215.514C829.305 214.168 829.566 212.986 830.089 211.969C830.612 210.952 831.347 210.159 832.296 209.591C833.251 209.023 834.37 208.739 835.654 208.739C836.518 208.739 837.322 208.878 838.066 209.156C838.816 209.429 839.47 209.841 840.026 210.392C840.589 210.943 841.026 211.636 841.339 212.472C841.651 213.301 841.808 214.273 841.808 215.386V216.384H830.754V214.134H838.39C838.39 213.611 838.276 213.148 838.049 212.744C837.822 212.341 837.507 212.026 837.103 211.798C836.705 211.565 836.242 211.449 835.714 211.449C835.163 211.449 834.674 211.577 834.248 211.832C833.828 212.082 833.498 212.42 833.259 212.847C833.021 213.267 832.899 213.736 832.893 214.253V216.392C832.893 217.04 833.012 217.599 833.251 218.071C833.495 218.543 833.839 218.906 834.282 219.162C834.725 219.418 835.251 219.545 835.859 219.545C836.262 219.545 836.632 219.489 836.967 219.375C837.302 219.261 837.589 219.091 837.828 218.864C838.066 218.636 838.248 218.358 838.373 218.028L841.731 218.25C841.561 219.057 841.211 219.761 840.683 220.364C840.16 220.96 839.484 221.426 838.654 221.761C837.83 222.091 836.879 222.256 835.799 222.256ZM860.787 222H854.6V204.545H860.839C862.594 204.545 864.106 204.895 865.373 205.594C866.64 206.287 867.614 207.284 868.296 208.585C868.983 209.886 869.327 211.443 869.327 213.256C869.327 215.074 868.983 216.636 868.296 217.943C867.614 219.25 866.634 220.253 865.356 220.952C864.083 221.651 862.56 222 860.787 222ZM858.29 218.838H860.634C861.725 218.838 862.642 218.645 863.387 218.259C864.137 217.866 864.699 217.261 865.074 216.443C865.455 215.619 865.645 214.557 865.645 213.256C865.645 211.966 865.455 210.912 865.074 210.094C864.699 209.276 864.14 208.673 863.395 208.287C862.651 207.901 861.733 207.707 860.642 207.707H858.29V218.838ZM874.393 222V208.909H878.023V222H874.393ZM876.216 207.222C875.677 207.222 875.214 207.043 874.827 206.685C874.447 206.321 874.256 205.886 874.256 205.381C874.256 204.881 874.447 204.452 874.827 204.094C875.214 203.73 875.677 203.548 876.216 203.548C876.756 203.548 877.216 203.73 877.597 204.094C877.984 204.452 878.177 204.881 878.177 205.381C878.177 205.886 877.984 206.321 877.597 206.685C877.216 207.043 876.756 207.222 876.216 207.222ZM889.229 227.182C888.053 227.182 887.045 227.02 886.204 226.696C885.369 226.378 884.704 225.943 884.21 225.392C883.715 224.841 883.394 224.222 883.246 223.534L886.604 223.082C886.707 223.344 886.869 223.588 887.09 223.815C887.312 224.043 887.604 224.224 887.968 224.361C888.337 224.503 888.786 224.574 889.315 224.574C890.104 224.574 890.755 224.381 891.266 223.994C891.783 223.614 892.042 222.974 892.042 222.077V219.682H891.888C891.729 220.045 891.491 220.389 891.173 220.713C890.854 221.037 890.445 221.301 889.945 221.506C889.445 221.71 888.849 221.812 888.156 221.812C887.173 221.812 886.278 221.585 885.471 221.131C884.67 220.67 884.031 219.969 883.553 219.026C883.082 218.077 882.846 216.878 882.846 215.429C882.846 213.946 883.087 212.707 883.57 211.713C884.053 210.719 884.695 209.974 885.496 209.48C886.303 208.986 887.187 208.739 888.147 208.739C888.88 208.739 889.494 208.864 889.988 209.114C890.482 209.358 890.88 209.665 891.181 210.034C891.488 210.398 891.724 210.756 891.888 211.108H892.025V208.909H895.63V222.128C895.63 223.241 895.357 224.173 894.812 224.923C894.266 225.673 893.511 226.236 892.545 226.611C891.585 226.991 890.479 227.182 889.229 227.182ZM889.306 219.085C889.891 219.085 890.386 218.94 890.789 218.651C891.198 218.355 891.511 217.935 891.727 217.389C891.948 216.838 892.059 216.179 892.059 215.412C892.059 214.645 891.951 213.98 891.735 213.418C891.519 212.849 891.207 212.409 890.798 212.097C890.388 211.784 889.891 211.628 889.306 211.628C888.71 211.628 888.207 211.79 887.798 212.114C887.388 212.432 887.079 212.875 886.869 213.443C886.658 214.011 886.553 214.668 886.553 215.412C886.553 216.168 886.658 216.821 886.869 217.372C887.085 217.918 887.394 218.341 887.798 218.642C888.207 218.937 888.71 219.085 889.306 219.085ZM900.919 222V208.909H904.55V222H900.919ZM902.743 207.222C902.203 207.222 901.74 207.043 901.354 206.685C900.973 206.321 900.783 205.886 900.783 205.381C900.783 204.881 900.973 204.452 901.354 204.094C901.74 203.73 902.203 203.548 902.743 203.548C903.283 203.548 903.743 203.73 904.124 204.094C904.51 204.452 904.703 204.881 904.703 205.381C904.703 205.886 904.51 206.321 904.124 206.685C903.743 207.043 903.283 207.222 902.743 207.222ZM916.821 208.909V211.636H908.938V208.909H916.821ZM910.728 205.773H914.358V217.977C914.358 218.312 914.409 218.574 914.512 218.761C914.614 218.943 914.756 219.071 914.938 219.145C915.125 219.219 915.341 219.256 915.585 219.256C915.756 219.256 915.926 219.241 916.097 219.213C916.267 219.179 916.398 219.153 916.489 219.136L917.06 221.838C916.878 221.895 916.622 221.96 916.293 222.034C915.963 222.114 915.563 222.162 915.091 222.179C914.216 222.213 913.449 222.097 912.79 221.83C912.137 221.562 911.628 221.148 911.264 220.585C910.901 220.023 910.722 219.312 910.728 218.455V205.773ZM925.319 222.247C924.484 222.247 923.74 222.102 923.086 221.812C922.433 221.517 921.916 221.082 921.535 220.509C921.16 219.929 920.973 219.207 920.973 218.344C920.973 217.616 921.106 217.006 921.373 216.511C921.64 216.017 922.004 215.619 922.464 215.318C922.924 215.017 923.447 214.79 924.032 214.636C924.623 214.483 925.243 214.375 925.89 214.312C926.652 214.233 927.265 214.159 927.731 214.091C928.197 214.017 928.535 213.909 928.745 213.767C928.956 213.625 929.061 213.415 929.061 213.136V213.085C929.061 212.545 928.89 212.128 928.549 211.832C928.214 211.537 927.737 211.389 927.118 211.389C926.464 211.389 925.944 211.534 925.558 211.824C925.172 212.108 924.916 212.466 924.791 212.898L921.433 212.625C921.603 211.83 921.939 211.142 922.439 210.562C922.939 209.977 923.584 209.528 924.373 209.216C925.169 208.898 926.089 208.739 927.135 208.739C927.862 208.739 928.558 208.824 929.223 208.994C929.893 209.165 930.487 209.429 931.004 209.787C931.527 210.145 931.939 210.605 932.24 211.168C932.541 211.724 932.691 212.392 932.691 213.17V222H929.248V220.185H929.146C928.936 220.594 928.655 220.955 928.302 221.267C927.95 221.574 927.527 221.815 927.032 221.991C926.538 222.162 925.967 222.247 925.319 222.247ZM926.359 219.741C926.893 219.741 927.365 219.636 927.774 219.426C928.183 219.21 928.504 218.92 928.737 218.557C928.97 218.193 929.086 217.781 929.086 217.321V215.932C928.973 216.006 928.816 216.074 928.618 216.136C928.424 216.193 928.206 216.247 927.961 216.298C927.717 216.344 927.473 216.386 927.228 216.426C926.984 216.46 926.763 216.491 926.564 216.52C926.138 216.582 925.765 216.682 925.447 216.818C925.129 216.955 924.882 217.139 924.706 217.372C924.53 217.599 924.441 217.884 924.441 218.224C924.441 218.719 924.62 219.097 924.978 219.358C925.342 219.614 925.802 219.741 926.359 219.741ZM941.539 204.545V222H937.908V204.545H941.539ZM957.879 222H953.924L959.95 204.545H964.705L970.722 222H966.768L962.396 208.534H962.259L957.879 222ZM957.632 215.139H966.972V218.02H957.632V215.139ZM983.55 216.426V208.909H987.181V222H983.695V219.622H983.559C983.263 220.389 982.772 221.006 982.084 221.472C981.402 221.937 980.57 222.17 979.587 222.17C978.712 222.17 977.942 221.972 977.277 221.574C976.612 221.176 976.093 220.611 975.718 219.878C975.348 219.145 975.161 218.267 975.155 217.244V208.909H978.786V216.597C978.791 217.369 978.999 217.98 979.408 218.429C979.817 218.878 980.365 219.102 981.053 219.102C981.49 219.102 981.899 219.003 982.28 218.804C982.661 218.599 982.968 218.298 983.201 217.901C983.439 217.503 983.556 217.011 983.55 216.426ZM997.309 222.213C996.314 222.213 995.414 221.957 994.607 221.446C993.806 220.929 993.169 220.17 992.698 219.17C992.232 218.165 991.999 216.932 991.999 215.472C991.999 213.972 992.24 212.724 992.723 211.73C993.206 210.73 993.848 209.983 994.65 209.489C995.456 208.989 996.34 208.739 997.3 208.739C998.033 208.739 998.644 208.864 999.133 209.114C999.627 209.358 1000.02 209.665 1000.33 210.034C1000.63 210.398 1000.87 210.756 1001.02 211.108H1001.14V204.545H1004.76V222H1001.18V219.903H1001.02C1000.85 220.267 1000.61 220.628 1000.3 220.986C999.993 221.338 999.593 221.631 999.098 221.864C998.61 222.097 998.013 222.213 997.309 222.213ZM998.459 219.324C999.044 219.324 999.539 219.165 999.942 218.847C1000.35 218.523 1000.66 218.071 1000.88 217.491C1001.1 216.912 1001.21 216.233 1001.21 215.455C1001.21 214.676 1001.1 214 1000.89 213.426C1000.67 212.852 1000.36 212.409 999.951 212.097C999.542 211.784 999.044 211.628 998.459 211.628C997.863 211.628 997.36 211.79 996.951 212.114C996.542 212.437 996.232 212.886 996.022 213.46C995.812 214.034 995.706 214.699 995.706 215.455C995.706 216.216 995.812 216.889 996.022 217.474C996.238 218.054 996.547 218.509 996.951 218.838C997.36 219.162 997.863 219.324 998.459 219.324ZM1010.14 222V208.909H1013.77V222H1010.14ZM1011.97 207.222C1011.43 207.222 1010.96 207.043 1010.58 206.685C1010.2 206.321 1010.01 205.886 1010.01 205.381C1010.01 204.881 1010.2 204.452 1010.58 204.094C1010.96 203.73 1011.43 203.548 1011.97 203.548C1012.51 203.548 1012.97 203.73 1013.35 204.094C1013.73 204.452 1013.93 204.881 1013.93 205.381C1013.93 205.886 1013.73 206.321 1013.35 206.685C1012.97 207.043 1012.51 207.222 1011.97 207.222ZM1025 222.256C1023.67 222.256 1022.53 221.974 1021.56 221.412C1020.6 220.844 1019.86 220.054 1019.34 219.043C1018.81 218.026 1018.55 216.847 1018.55 215.506C1018.55 214.153 1018.81 212.972 1019.34 211.96C1019.86 210.943 1020.6 210.153 1021.56 209.591C1022.53 209.023 1023.67 208.739 1025 208.739C1026.32 208.739 1027.46 209.023 1028.42 209.591C1029.39 210.153 1030.13 210.943 1030.66 211.96C1031.18 212.972 1031.44 214.153 1031.44 215.506C1031.44 216.847 1031.18 218.026 1030.66 219.043C1030.13 220.054 1029.39 220.844 1028.42 221.412C1027.46 221.974 1026.32 222.256 1025 222.256ZM1025.01 219.443C1025.62 219.443 1026.12 219.273 1026.52 218.932C1026.93 218.585 1027.23 218.114 1027.43 217.517C1027.64 216.92 1027.75 216.241 1027.75 215.48C1027.75 214.719 1027.64 214.04 1027.43 213.443C1027.23 212.847 1026.93 212.375 1026.52 212.028C1026.12 211.682 1025.62 211.509 1025.01 211.509C1024.41 211.509 1023.89 211.682 1023.48 212.028C1023.07 212.375 1022.76 212.847 1022.55 213.443C1022.35 214.04 1022.24 214.719 1022.24 215.48C1022.24 216.241 1022.35 216.92 1022.55 217.517C1022.76 218.114 1023.07 218.585 1023.48 218.932C1023.89 219.273 1024.41 219.443 1025.01 219.443Z" fill="#9D99A3"/>
</g>
<defs>
<filter id="filter0_d_122_5" x="25" y="8" width="1027.95" height="285" filterUnits="userSpaceOnUse" color-interpolation-filters="sRGB">
<feFlood flood-opacity="0" result="BackgroundImageFix"/>
<feColorMatrix in="SourceAlpha" type="matrix" values="0 0 0 0 0 0 0 0 0 0 0 0 0 0 0 0 0 0 127 0" result="hardAlpha"/>
<feOffset dy="4"/>
<feGaussianBlur stdDeviation="2"/>
<feComposite in2="hardAlpha" operator="out"/>
<feColorMatrix type="matrix" values="0 0 0 0 0 0 0 0 0 0 0 0 0 0 0 0 0 0 0.25 0"/>
<feBlend mode="normal" in2="BackgroundImageFix" result="effect1_dropShadow_122_5"/>
<feBlend mode="normal" in="SourceGraphic" in2="effect1_dropShadow_122_5" result="shape"/>
</filter>
</defs>
</svg>
