<svg width="386" height="254" viewBox="0 0 386 254" fill="none" xmlns="http://www.w3.org/2000/svg">
<g filter="url(#filter0_d_142_63)">
<path d="M193 159C212.882 159 229 142.882 229 123C229 103.118 212.882 87 193 87C173.118 87 157 103.118 157 123C157 142.882 173.118 159 193 159Z" fill="#FEFEFE"/>
<path d="M94 48C107.255 48 118 37.2548 118 24C118 10.7452 107.255 0 94 0C80.7452 0 70 10.7452 70 24C70 37.2548 80.7452 48 94 48Z" fill="#FEFEFE"/>
<path d="M292 48C305.255 48 316 37.2548 316 24C316 10.7452 305.255 0 292 0C278.745 0 268 10.7452 268 24C268 37.2548 278.745 48 292 48Z" fill="#FEFEFE"/>
<path d="M28 246C41.2548 246 52 235.255 52 222C52 208.745 41.2548 198 28 198C14.7452 198 4 208.745 4 222C4 235.255 14.7452 246 28 246Z" fill="#FEFEFE"/>
<path d="M358 246C371.255 246 382 235.255 382 222C382 208.745 371.255 198 358 198C344.745 198 334 208.745 334 222C334 235.255 344.745 246 358 246Z" fill="#FEFEFE"/>
<path d="M109.269 57.4114L151.424 99.5661C154.334 102.476 161.126 100.403 166.593 94.936C172.06 89.4686 174.133 82.6773 171.223 79.7671L129.068 37.6124C126.158 34.7022 119.367 36.7752 113.899 42.2426C108.432 47.7099 106.359 54.5012 109.269 57.4114Z" fill="#FEFEFE"/>
<path d="M262.04 42.9886L219.885 85.1435C216.975 88.0537 219.206 95.0033 224.869 100.666C230.531 106.328 237.481 108.56 240.391 105.65L282.546 63.4947C285.456 60.5845 283.225 53.6349 277.562 47.9723C271.9 42.3097 264.95 40.0784 262.04 42.9886Z" fill="#FEFEFE"/>
<path d="M67.6098 217.412L162.205 162.151C166.224 159.803 166.348 153.085 162.482 147.146C158.616 141.207 152.224 138.295 148.206 140.643L53.61 195.903C49.5912 198.251 49.4674 204.969 53.3333 210.908C57.1993 216.848 63.5911 219.759 67.6098 217.412Z" fill="#FEFEFE"/>
<path d="M319.365 217.377L224.154 161.671C220.11 159.304 219.963 152.57 223.827 146.629C227.691 140.689 234.102 137.791 238.147 140.158L333.358 195.864C337.403 198.23 337.55 204.965 333.686 210.905C329.822 216.846 323.41 219.743 319.365 217.377Z" fill="#FEFEFE"/>
<path d="M24.669 183.425L70.5903 55.3685C72.4281 50.2437 80.8605 47.9408 89.4246 50.2251C97.9886 52.5093 103.441 58.5156 101.604 63.6404L55.6822 191.697C53.8444 196.822 45.412 199.124 36.848 196.84C28.2839 194.556 22.8312 188.55 24.669 183.425Z" fill="#FEFEFE"/>
<path d="M362.812 184.469L316.355 55.3329C314.496 50.1648 306.046 47.8242 297.481 50.1051C288.916 52.3859 283.48 58.4245 285.339 63.5926L331.796 192.729C333.655 197.897 342.106 200.237 350.67 197.956C359.235 195.675 364.671 189.637 362.812 184.469Z" fill="#FEFEFE"/>
</g>
<defs>
<filter id="filter0_d_142_63" x="0" y="0" width="386" height="254" filterUnits="userSpaceOnUse" color-interpolation-filters="sRGB">
<feFlood flood-opacity="0" result="BackgroundImageFix"/>
<feColorMatrix in="SourceAlpha" type="matrix" values="0 0 0 0 0 0 0 0 0 0 0 0 0 0 0 0 0 0 127 0" result="hardAlpha"/>
<feOffset dy="4"/>
<feGaussianBlur stdDeviation="2"/>
<feComposite in2="hardAlpha" operator="out"/>
<feColorMatrix type="matrix" values="0 0 0 0 0 0 0 0 0 0 0 0 0 0 0 0 0 0 0.25 0"/>
<feBlend mode="normal" in2="BackgroundImageFix" result="effect1_dropShadow_142_63"/>
<feBlend mode="normal" in="SourceGraphic" in2="effect1_dropShadow_142_63" result="shape"/>
</filter>
</defs>
</svg>
