<?xml version="1.0" encoding="UTF-8" standalone="no"?>
<!-- Created with Inkscape (http://www.inkscape.org/) -->

<svg
   width="210mm"
   height="297mm"
   viewBox="0 0 210 297"
   version="1.1"
   id="svg1"
   xml:space="preserve"
   inkscape:export-filename="bitmap.svg"
   inkscape:export-xdpi="96"
   inkscape:export-ydpi="96"
   inkscape:version="1.4.2 (ebf0e940, 2025-05-08)"
   sodipodi:docname="magda_monad_lisa.svg"
   xmlns:inkscape="http://www.inkscape.org/namespaces/inkscape"
   xmlns:sodipodi="http://sodipodi.sourceforge.net/DTD/sodipodi-0.dtd"
   xmlns="http://www.w3.org/2000/svg"
   xmlns:svg="http://www.w3.org/2000/svg"><sodipodi:namedview
     id="namedview1"
     pagecolor="#ffffff"
     bordercolor="#000000"
     borderopacity="0.25"
     inkscape:showpageshadow="2"
     inkscape:pageopacity="0.0"
     inkscape:pagecheckerboard="0"
     inkscape:deskcolor="#d1d1d1"
     inkscape:document-units="mm"
     inkscape:zoom="0.70644641"
     inkscape:cx="504.63842"
     inkscape:cy="527.28699"
     inkscape:window-width="1920"
     inkscape:window-height="942"
     inkscape:window-x="1512"
     inkscape:window-y="25"
     inkscape:window-maximized="1"
     inkscape:current-layer="svg1" /><defs
     id="defs1" /><g
     inkscape:label="Layer 1"
     inkscape:groupmode="layer"
     id="layer1"><path
       style="fill:#000000"
       d="m 22.952072,185.64349 c -9.801168,-2.09573 -11.86058,-8.45895 -5.951761,-18.38988 0.938621,-1.57754 3.064007,-5.17134 4.72308,-7.98624 1.659074,-2.8149 3.572405,-6.03923 4.251847,-7.16519 2.193959,-3.63579 6.196996,-10.46171 9.66461,-16.47994 10.93523,-18.97869 15.494854,-29.84178 19.060598,-45.410978 l 0.952737,-4.159959 -0.63931,-0.753315 C 52.333462,82.139598 51.157904,79.244761 49.969315,72.87565 48.38658,64.394491 49.406147,60.795493 54.090588,58.327863 l 1.578608,-0.831566 0.477535,-2.13687 C 59.664928,39.61622 71.813036,29.742652 91.12374,26.931305 c 27.5239,-4.007065 50.74769,9.033883 53.83824,30.231994 l 0.32087,2.20085 0.44994,0.307079 c 3.91777,2.673879 4.75211,5.693393 3.77114,13.648065 l -0.25668,2.0814 0.55314,2.729513 c 2.05419,10.136716 6.2592,24.012094 9.45096,31.185554 4.00958,9.01151 6.46953,12.91357 11.29541,17.91716 l 2.66959,2.76791 0.95356,1.83829 c 0.52447,1.01105 1.27422,2.85165 1.66613,4.0902 0.62594,1.97816 2.48922,7.14698 5.0552,14.0233 1.32067,3.53914 3.83616,10.50451 5.21227,14.43274 0.70999,2.02673 1.56711,4.37589 1.9047,5.22036 2.97201,7.43424 -1.44417,14.10329 -10.57065,15.96315 l -2.03361,0.41442 -75.509421,-0.0167 -75.509419,-0.0167 z m 151.590488,-2.04091 c 6.90062,-0.61666 11.77851,-5.37651 11.40681,-11.13079 l -0.1124,-1.74012 -1.1615,-3.27551 c -0.63883,-1.80154 -1.91872,-5.53255 -2.84421,-8.29115 -10.38173,-30.94468 -9.68695,-29.36602 -14.48352,-32.90944 -5.68455,-4.19943 -12.62504,-15.04308 -18.96627,-29.632432 -0.34257,-0.788171 -1.2608,-2.722772 -2.0405,-4.299114 -0.7797,-1.576342 -1.54225,-3.212477 -1.69457,-3.635855 -0.66344,-1.844153 -0.53013,-0.01149 0.20612,2.833573 3.25782,12.589028 7.62201,23.971878 12.13602,31.653608 l 0.80605,1.37168 0.70109,0.23139 c 4.48873,1.48141 8.34361,4.17216 9.96281,6.95415 0.52641,0.90443 1.76005,4.14211 4.7582,12.4879 0.82921,2.30821 2.02209,5.62467 2.65086,7.36991 0.62876,1.74524 1.64729,4.60108 2.2634,6.34631 0.61612,1.74524 1.68305,4.73926 2.37097,6.65339 0.68791,1.91413 1.53015,4.26235 1.87163,5.21827 l 0.62087,1.73802 -0.11942,1.69224 -0.11942,1.69224 -0.61878,1.29653 c -1.10806,2.32172 -3.46284,4.02276 -6.72308,4.85659 l -1.54635,0.39549 -73.30809,-0.004 -73.308094,-0.004 -1.355653,-0.28735 c -3.851721,-0.81643 -6.517553,-3.54334 -6.516701,-6.66601 4.89e-4,-1.79311 0.377447,-2.63527 3.711222,-8.29115 1.526462,-2.5897 3.213228,-5.49161 3.748371,-6.44867 1.371944,-2.45363 5.479019,-9.60013 8.29446,-14.43274 1.311949,-2.25192 3.195989,-5.52232 4.186756,-7.26755 0.990768,-1.74524 2.146918,-3.77196 2.569222,-4.50384 0.822705,-1.42578 4.172812,-7.6048 5.927438,-10.9327 2.111757,-4.00525 4.076536,-8.05915 5.417106,-11.17703 0.750385,-1.74523 1.506289,-3.49135 1.679786,-3.88026 1.539038,-3.4499 4.683474,-12.626013 5.686924,-16.595614 l 0.484564,-1.916022 -1.029542,-0.476994 c -1.248773,-0.578565 -0.788836,-1.397909 -3.069792,5.468612 -1.065976,3.208981 -2.17321,6.433318 -2.46052,7.165188 -0.28731,0.73188 -1.045527,2.66647 -1.684928,4.29911 -1.027164,2.62275 -4.551022,9.97537 -6.573714,13.71622 -1.920422,3.55171 -2.544503,4.69509 -4.637232,8.49587 -2.149672,3.9042 -3.839604,6.93092 -7.429691,13.30678 -0.887598,1.57635 -2.037903,3.64913 -2.556234,4.6062 -0.518331,0.95706 -1.708756,3.07591 -2.645389,4.70855 -0.936633,1.63264 -2.088086,3.65937 -2.558784,4.50384 -0.470698,0.84446 -2.145119,3.79243 -3.720935,6.55103 -6.319014,11.06196 -6.517633,11.49737 -6.382873,13.99242 0.218104,4.03816 4.127733,7.47386 9.483101,8.33354 1.143634,0.18358 146.635912,0.0463 148.724412,-0.14031 z m -89.863864,-9.69514 c 0.508676,-0.50812 1.794991,-1.7069 2.858477,-2.66397 1.063486,-0.95706 2.496911,-2.2468 3.185388,-2.86607 0.688478,-0.61928 2.442251,-2.10863 3.897278,-3.30967 1.45502,-1.20104 3.33642,-2.75506 4.18089,-3.45339 5.041721,-4.1692 15.716271,-11.78257 22.519171,-16.06125 16.05061,-10.09503 26.5129,-14.66324 35.54964,-15.52225 l 2.63059,-0.25006 -2.35428,-0.74749 c -6.62841,-2.10454 -10.36944,-2.76931 -13.00146,-2.31033 -7.15803,1.24826 -22.85825,7.76368 -34.28879,14.22949 -0.84447,0.47769 -2.36452,1.32469 -3.37788,1.88225 -9.621281,5.29361 -28.320583,17.99963 -34.963073,23.7571 l -0.774877,0.67164 0.570158,0.53447 c 1.048627,0.983 5.335774,3.94002 8.085524,5.57692 1.496341,0.89075 2.904868,1.73342 3.130059,1.87258 l 0.40944,0.25303 0.409439,-0.33457 c 0.225192,-0.18402 0.825629,-0.75031 1.334306,-1.25843 z M 104.1271,149.88347 c 1.16123,-0.77962 10.77809,-6.48188 10.93168,-6.48188 0.0471,0 0.76121,-0.39923 1.58683,-0.88717 8.17533,-4.83161 18.55873,-9.45438 24.73682,-11.01302 2.37597,-0.59943 3.74431,-0.72708 2.04475,-0.19075 -7.10397,2.24176 -26.48147,11.36557 -36.71958,17.28924 -2.99872,1.73503 -3.97983,2.22305 -2.5805,1.28358 z m -9.870931,-4.67234 c 5.949161,-3.64146 10.829691,-6.45722 15.292351,-8.82271 1.68893,-0.89524 3.16292,-1.6959 3.27551,-1.77923 1.85658,-1.37409 18.92934,-8.40406 20.40984,-8.40406 0.20307,0 0.36921,-0.0921 0.36921,-0.20472 0,-0.11259 -0.3163,-0.20472 -0.70289,-0.20472 -3.20602,0 -13.45244,-2.75092 -15.73411,-4.22423 -1.18416,-0.76463 -1.16889,-0.59502 -1.16889,-12.98555 0,-6.29803 -0.0553,-11.450973 -0.12293,-11.450973 -0.0676,0 -0.78156,0.588604 -1.58657,1.308007 -4.6707,4.174006 -9.70731,6.982176 -14.12903,7.877686 l -1.869731,0.37867 v 6.32386 6.32386 l -1.33068,0.65698 c -1.30795,0.64576 -5.711999,2.28615 -7.214183,2.68709 l -0.765514,0.20432 -0.05336,-8.70724 -0.05336,-8.70723 -1.791298,-0.7719 -1.791297,-0.7719 -0.01364,6.47663 c -0.01287,6.11233 -0.135307,12.33975 -0.244163,12.4191 -0.284136,0.20711 -12.434105,3.99923 -15.403254,4.80749 -6.024012,1.63986 -7.163575,2.01311 -7.978774,2.61335 l -0.757315,0.55762 -0.920111,2.35427 c -0.987291,2.52617 -1.792031,4.98448 -2.010481,6.1416 -0.0744,0.39408 -0.177633,0.86818 -0.229409,1.05356 l -0.09414,0.33704 2.382804,0.75046 c 8.212268,2.58645 21.924985,4.87662 31.164629,5.20484 0.503971,0.0179 1.284727,-0.34872 3.070795,-1.44197 z M 58.861395,120.3935 c 0.437834,-0.52756 -0.165295,-3.19603 -0.722367,-3.19603 -0.708484,0 -0.105025,-4.24311 1.4571,-10.24532 1.169062,-4.49193 2.009981,-6.5258 1.477393,-3.57327 -0.348357,1.93122 -0.268982,9.33512 0.118517,11.05487 0.344393,1.52844 1.598898,4.4412 1.735847,4.03035 0.0451,-0.13529 -0.13179,-0.6829 -0.39308,-1.21692 l -0.475073,-0.97095 0.04039,-4.09994 c 0.02387,-2.42304 0.165305,-4.89312 0.345809,-6.03923 0.167982,-1.06661 0.407734,-2.90659 0.532783,-4.08885 0.190176,-1.79801 1.411209,-8.20074 1.754659,-9.200909 0.164012,-0.477623 -0.630071,0.322808 -1.592845,1.605578 -0.47334,0.630663 -0.932133,1.23173 -1.01954,1.335704 -0.182825,0.217475 -0.0308,-1.520545 0.273136,-3.122535 0.308207,-1.624524 0.09643,-1.497213 -0.850884,0.511507 -1.878064,3.982332 -3.540679,9.881425 -4.312428,15.300835 -0.2211,1.55262 -0.302345,8.17165 -0.104236,8.4922 0.05259,0.0851 0.185044,0.87497 0.294334,1.75527 0.226893,1.82756 0.778134,2.46573 1.44049,1.66764 z m 4.318103,-1.45592 c 0,-0.0563 -0.04606,-0.10236 -0.10236,-0.10236 -0.0563,0 -0.10236,0.0461 -0.10236,0.10236 0,0.0563 0.04606,0.10236 0.10236,0.10236 0.0563,0 0.10236,-0.0461 0.10236,-0.10236 z m 69.434572,-1.68893 c -1.43453,-2.78489 -2.71761,-10.50694 -3.03593,-18.271235 l -0.14688,-3.582595 -0.48455,2.558996 -0.48455,2.558994 -0.0177,3.07079 c -0.0305,5.29075 1.20577,9.83027 3.58223,13.15325 0.6466,0.90413 0.90586,1.13002 0.58741,0.5118 z m -9.20817,-6.26789 -0.0636,-3.76057 0.34114,-0.34114 0.34114,-0.34114 0.30871,0.2562 c 0.16979,0.14092 0.58338,0.7429 0.9191,1.33775 0.33571,0.59484 0.63685,1.08154 0.66919,1.08154 0.0324,0 0.0136,-1.17458 -0.0417,-2.61018 -0.12887,-3.34515 -0.68365,-4.54805 -1.68121,-3.64526 -0.62075,0.56176 -1.22271,-2.98142 -1.25013,-7.358421 l -0.0128,-2.047197 -0.50147,1.637758 -0.50146,1.637758 -0.21157,3.787312 c -0.35187,6.29879 0.0293,10.38833 1.22922,13.18759 0.22116,0.51594 0.42841,0.93818 0.46056,0.93832 0.0322,1.4e-4 0.0299,-1.692 -0.005,-3.76032 z M 99.036919,101.00314 C 108.51077,97.829105 116.95572,90.52716 120.10829,82.783736 l 1.00689,-2.473155 -3e-4,-1.158469 c -3.6e-4,-1.428019 0.31727,-4.71019 0.83581,-8.636716 0.21605,-1.635927 0.39281,-3.086878 0.39281,-3.224335 0,-0.165369 -0.36362,-0.248977 -1.07478,-0.247127 -1.6092,0.0042 -1.9955,0.15661 -1.99904,0.78878 -0.0801,14.274196 -22.868691,14.435672 -24.483761,0.173488 l -0.13413,-1.184492 -0.86077,-0.504445 c -1.128239,-0.66119 -2.557866,-0.675628 -3.685044,-0.03722 l -0.813045,0.460492 -0.155309,0.917998 c -0.478938,2.830906 -0.67078,3.52269 -1.395081,5.03068 l -0.795414,1.656045 -1.323885,1.238429 c -4.030132,3.769991 -9.979033,3.920069 -14.347437,0.361955 -0.62471,-0.508833 -1.135836,-0.869469 -1.135836,-0.801414 0,6.148041 6.387141,16.667105 13.136531,21.63472 6.502352,4.78579 10.71445,5.91474 15.76042,4.22418 z M 91.854056,90.141143 c -1.599208,-0.257084 -3.814462,-1.396382 -5.23415,-2.691907 -1.468438,-1.340011 -1.417355,-1.52196 0.239416,-0.85276 4.319776,1.744835 8.254877,1.653291 12.750627,-0.296625 2.183591,-0.947075 2.242131,-0.878985 0.637081,0.741067 -2.363031,2.385131 -5.540401,3.558796 -8.392974,3.100225 z m -1.530997,-9.80893 c -0.291499,-0.346427 -0.529998,-0.714922 -0.529998,-0.818879 0,-0.256075 2.70313,-0.240831 3.3868,0.0191 l 0.547378,0.208113 -0.263241,0.317185 c -0.869893,1.048157 -2.378968,1.180032 -3.140939,0.274481 z m 40.213851,-4.30489 c 1.02035,-5.48585 1.43887,-7.543231 1.6406,-8.064946 l 0.15831,-0.40944 0.29633,0.71652 c 0.16298,0.394085 0.35059,0.871211 0.41692,1.060279 l 0.1206,0.343761 0.56034,-0.149859 c 0.38121,-0.101951 0.63047,-0.356536 0.77969,-0.796344 0.12064,-0.355567 0.37034,-0.765256 0.5549,-0.910421 0.18455,-0.145164 0.5861,-1.231236 0.89234,-2.413493 0.46175,-1.782669 1.66794,-5.438006 2.23729,-6.780063 l 0.14059,-0.331393 -0.88165,-0.353437 c -2.13314,-0.855133 -3.68023,-0.609044 -4.35326,0.692455 -1.50642,2.913102 -3.58375,14.642144 -3.58947,20.26688 -0.002,2.397456 0.0999,2.111358 1.02647,-2.870499 z m -70.244899,1.91514 c -0.07679,-0.760022 -0.379757,-3.293106 -0.673262,-5.629075 -0.293505,-2.33597 -0.533646,-4.306026 -0.533646,-4.377903 0,-0.07188 0.204103,0.13508 0.453562,0.459903 0.625577,0.81457 0.842321,0.93076 1.048615,0.562132 0.240292,-0.429378 0.203501,-11.142737 -0.0391,-11.385336 -0.620425,-0.620425 -3.574113,0.688263 -4.033186,1.78698 l -0.293552,0.702569 0.316483,2.517284 c 0.668937,5.320672 3.281668,16.745305 3.829531,16.745305 0.03529,0 0.0013,-0.621837 -0.07545,-1.381859 z M 52.985059,67.031519 c 0.258638,-0.117887 0.820423,-0.715521 1.248411,-1.328076 l 0.778159,-1.113736 -0.122594,-1.282101 c -0.06743,-0.705156 -0.168024,-1.579329 -0.223549,-1.942607 l -0.100956,-0.660505 -0.895079,0.558145 c -2.85862,1.782555 -3.482861,7.044411 -0.684392,5.76888 z m 91.104501,-2.16953 0.73254,-1.974429 -0.46403,-0.464022 c -0.86102,-0.861026 -4.03117,-2.122098 -4.69463,-1.867506 -0.22497,0.08633 -1.55652,3.658887 -1.55652,4.176168 0,0.09744 0.34546,0.278149 0.7677,0.401586 0.42223,0.123438 1.50469,0.555903 2.40545,0.961033 2.13615,0.960757 1.96832,1.034403 2.80949,-1.23283 z M 71.368286,63.659194 c 0.957065,-0.613514 2.314128,-1.462387 3.015695,-1.886384 1.50972,-0.91241 1.573877,-1.07917 0.413361,-1.074429 -2.542172,0.01039 -4.993016,1.036256 -5.620807,2.352747 L 68.840988,63.754779 69.07665,64.272 c 0.307026,0.673851 0.268359,0.684191 2.291636,-0.612806 z m 29.809724,-0.276382 c 4.89564,-2.584093 5.09038,-2.7746 2.53883,-2.483589 -4.010931,0.457456 -6.668031,2.025508 -6.070571,3.582461 0.20367,0.530764 0.78993,0.348355 3.531741,-1.098872 z M 90.346574,62.505445 c 0.971598,-0.244651 3.288655,-0.117531 3.908985,0.214457 l 0.37037,0.198214 0.70554,-0.952095 c 2.3794,-3.210878 14.392351,-4.743017 20.444891,-2.607555 1.14566,0.404214 1.06053,0.302558 -0.61518,-0.734554 -7.50778,-4.646631 -11.47374,-7.296102 -15.336851,-10.245827 -1.29485,-0.988701 -3.09127,-2.351021 -3.99204,-3.027377 -0.90076,-0.676357 -1.88912,-1.421258 -2.19635,-1.655337 -0.348627,-0.265624 -0.674358,-0.815429 -0.866581,-1.462713 l -0.30799,-1.037115 0.316042,-1.561123 c 0.545802,-2.696043 1.746349,-6.60983 2.472699,-8.060974 l 0.48672,-0.972418 h 2.10519 c 20.736481,0 34.010121,8.761259 37.103711,24.490292 0.0611,0.310468 0.33648,0.505068 0.9581,0.676946 0.47983,0.132671 1.0017,0.29445 1.15973,0.359508 l 0.28732,0.118287 -0.14081,-1.198103 C 135.73444,42.492636 125.86253,32.991719 111.08391,29.903626 86.831045,24.835824 65.311383,33.558582 59.093276,50.977459 c -0.37048,1.037832 -1.440131,5.071512 -1.440946,5.433841 -2.72e-4,0.12118 2.383287,-0.635665 2.779963,-0.882715 0.121677,-0.07578 0.338708,-0.6717 0.48229,-1.324265 2.626861,-11.938787 15.007421,-21.525295 29.973935,-23.2094 2.573274,-0.289558 2.546306,-0.302809 1.975945,0.970952 -0.834707,1.864113 -2.034956,5.423733 -2.565288,7.607962 -0.878144,3.616728 -0.923372,3.746411 -1.492554,4.279606 -0.301927,0.282837 -1.193825,1.007018 -1.981995,1.609292 C 84.204469,47.4649 76.499318,54.17807 73.771139,56.835681 l -2.095773,2.041562 0.614159,-0.165987 c 0.337788,-0.09129 2.272389,-0.155688 4.299114,-0.143102 l 3.684955,0.02289 1.944838,0.444863 c 2.696845,0.616877 4.587337,1.552002 5.732152,2.835389 0.506681,0.568011 1.048255,0.994634 1.203497,0.948051 0.155241,-0.04658 0.691863,-0.187837 1.192493,-0.313897 z M 67.625079,60.198743 68.692784,59.847741 68.443958,59.43538 c -0.244503,-0.405195 -1.558235,-1.19719 -1.985856,-1.19719 -0.119868,0 -0.303045,0.223836 -0.407059,0.497414 -0.235519,0.619462 -0.03087,2.011413 0.278992,1.897624 0.125036,-0.04592 0.707806,-0.241434 1.295044,-0.434485 z m 5.200089,-13.545564 c 0.665282,-0.511923 2.151784,-1.763437 3.303338,-2.781142 2.130359,-1.88274 4.438349,-3.549053 7.608364,-5.493055 2.082554,-1.277119 2.097528,-1.349653 0.16577,-0.802981 -3.677375,1.040667 -7.502322,3.337408 -10.421367,6.257649 l -1.879049,1.879818 -0.833488,1.746328 c -1.03679,2.172288 -1.036227,2.263415 0.0067,1.078621 0.462087,-0.524958 1.38448,-1.373316 2.049762,-1.885238 z M 112.92639,40.92164 c 0,-2.107514 -8.50226,-5.685891 -13.291681,-5.594117 l -0.93634,0.01794 2.251921,0.760245 c 2.86236,0.96633 4.59269,1.718714 8.29115,3.605168 3.06421,1.562947 3.68495,1.766904 3.68495,1.210761 z M 85.903387,37.049699 c 0,-0.0563 -0.04606,-0.10236 -0.10236,-0.10236 -0.0563,0 -0.10236,0.04606 -0.10236,0.10236 0,0.0563 0.04606,0.10236 0.10236,0.10236 0.0563,0 0.10236,-0.04606 0.10236,-0.10236 z"
       id="path437"
       sodipodi:nodetypes="sssssscssscssscsscssscsssscscccscscssssscsscssssssscccsscccssssssssssccssssssssssssscssssssscssscscssscsssssssssssssssssssscccsscccccsssscssscssssssssssscsssssssssssssssssssscccssssccccsssssscccsssccsscsssscscsscsscssssssssssssssscsscscsscssssscssccssssssscsssssscsscssscsssssssssscsssssssscssssssscsscscsscsssssssssssscsscsssssscssssscsssscssccsscsssssssss" /></g></svg>
