<?xml version="1.0" encoding="UTF-8" standalone="no"?>
<!-- Created with Inkscape (http://www.inkscape.org/) -->

<svg
   version="1.1"
   id="svg1"
   width="600"
   height="216"
   viewBox="0 0 600 216"
   sodipodi:docname="powered_by_te.svg"
   inkscape:version="1.4.2 (ebf0e940, 2025-05-08)"
   xmlns:inkscape="http://www.inkscape.org/namespaces/inkscape"
   xmlns:sodipodi="http://sodipodi.sourceforge.net/DTD/sodipodi-0.dtd"
   xmlns="http://www.w3.org/2000/svg"
   xmlns:svg="http://www.w3.org/2000/svg">
  <defs
     id="defs1" />
  <sodipodi:namedview
     id="namedview1"
     pagecolor="#ffffff"
     bordercolor="#000000"
     borderopacity="0.25"
     inkscape:showpageshadow="2"
     inkscape:pageopacity="0.0"
     inkscape:pagecheckerboard="0"
     inkscape:deskcolor="#d1d1d1"
     inkscape:zoom="1.3866667"
     inkscape:cx="300"
     inkscape:cy="107.8125"
     inkscape:window-width="1520"
     inkscape:window-height="942"
     inkscape:window-x="1699"
     inkscape:window-y="25"
     inkscape:window-maximized="0"
     inkscape:current-layer="g1" />
  <g
     inkscape:groupmode="layer"
     inkscape:label="Image"
     id="g1">
    <path
       style="fill:#000000"
       d="m 94.057692,212.78243 c -21.172363,-2.54212 -42.347247,-12.6399 -58.380356,-27.84013 -15.640088,-14.82763 -25.169812,-31.25758 -30.7411338,-53 -2.5247413,-9.85295 -2.5247413,-35.147036 0,-44.999996 5.0683018,-19.77935 13.0878118,-34.63251 26.1214898,-48.38035 14.566341,-15.36449 29.491559,-24.18781 51.5,-30.4452002 l 7.5,-2.13238 243.999998,-0.31919 c 168.02426,-0.21981 245.1255,0.007 247.6146,0.72854 5.06919,1.46936 8.8256,4.7065102 10.98907,9.4699802 l 1.85241,4.0786 v 89.499996 89.5 l -1.83681,4 c -2.1848,4.75782 -4.41489,6.88992 -9.37375,8.96186 l -3.68128,1.53814 -241.28212,-0.14983 C 205.63464,213.21006 95.707692,212.98054 94.057692,212.78243 Z M 118.6767,186.97774 c 10.99604,-1.92153 18.85999,-4.70094 27.02487,-9.55161 27.48889,-16.33085 42.79108,-46.70799 38.84048,-77.10418 -2.04345,-15.722406 -7.13751,-27.707896 -16.99876,-39.995236 -13.09701,-16.31918 -30.43192,-25.91324 -52.3649,-28.98151 -25.209453,-3.52663 -52.786461,8.04124 -69.804104,29.28109 -11.80864,14.73845 -17.087257,29.81875 -17.087257,48.816006 0,18.99726 5.278617,34.07757 17.087257,48.81602 12.440646,15.52726 28.606703,25.09014 48.524979,28.70451 9.633505,1.7481 14.841265,1.75123 24.777435,0.0149 z M 94.557692,165.07816 v -6.36414 l -4.75,-1.75647 c -2.6125,-0.96606 -5.820622,-2.42565 -7.12916,-3.24354 l -2.37916,-1.48707 -4.603827,4.60382 -4.603828,4.60383 -8.260907,-8.21799 -8.260908,-8.218 4.552376,-4.62187 4.552375,-4.62188 -1.948668,-3.40627 c -1.071767,-1.87346 -2.482982,-5.09378 -3.136032,-7.15628 l -1.187365,-3.75 H 50.98014 44.557692 v -12 -11.999996 h 6.422448 6.422448 l 1.187365,-3.75 c 0.65305,-2.0625 2.064265,-5.28282 3.136032,-7.15627 l 1.948668,-3.40628 -4.552375,-4.62187 -4.552376,-4.62188 8.260908,-8.21799 8.260907,-8.218 4.603828,4.60383 4.603827,4.60383 2.37916,-1.48707 c 1.308538,-0.81789 4.51666,-2.27748 7.12916,-3.24354 l 4.75,-1.75647 v -6.36414 -6.36415 h 11.999998 12 v 6.41964 6.41963 l 4.75,1.61647 c 2.6125,0.88905 5.875,2.24715 7.25,3.01798 l 2.5,1.40152 4.52815,-4.43151 4.52815,-4.43152 8.23237,8.27536 8.23237,8.27536 -4.45328,4.37057 -4.45328,4.37057 1.80743,3.59797 c 0.99409,1.97888 2.35323,5.28546 3.02032,7.34796 l 1.21287,3.75 h 6.42245 6.42245 v 11.999996 12 h -6.42245 -6.42245 l -1.21287,3.75 c -0.66709,2.0625 -2.02623,5.36908 -3.02032,7.34797 l -1.80743,3.59796 4.45328,4.37057 4.45328,4.37057 -8.23237,8.27536 -8.23237,8.27536 -4.62187,-4.55238 -4.62188,-4.55237 -3.40627,1.94867 c -1.87346,1.07176 -5.09378,2.48298 -7.15628,3.13603 l -3.75,1.18736 v 6.42245 6.42245 h -12 -11.999998 z M 113.9048,123.63352 c 7.50909,-11.16983 13.65289,-20.50733 13.65289,-20.75 0,-0.24267 -4.275,-0.44122 -9.5,-0.44122 -5.225,0 -9.5,-0.16901 -9.5,-0.37557 0,-0.20656 1.06809,-2.794056 2.37354,-5.749996 1.30545,-2.95593 3.7604,-8.63693 5.45544,-12.62443 l 3.0819,-7.25 h -9.82881 -9.828808 l -3.080374,7.75 c -5.077314,12.77415 -12.172886,31.307106 -12.172886,31.794426 0,0.25056 4.725,0.45557 10.5,0.45557 5.774998,0 10.499998,0.25132 10.499998,0.55849 0,0.55737 -5.583268,23.1504 -6.657878,26.94151 -0.899261,3.1725 0.4169,1.39112 15.004988,-20.30878 z m 328.65289,55.30878 c 0,-1.16667 -1.33333,-1.5 -6,-1.5 h -6 v -2.5 -2.5 h 5.5 c 3.025,0 5.5,-0.45 5.5,-1 0,-0.55 -2.475,-1 -5.5,-1 h -5.5 v -2.5 -2.5 h 6 c 3.33333,0 6,-0.44444 6,-1 0,-0.58333 -3.33333,-1 -8,-1 h -8 v 7.83333 c 0,4.30834 0.3,8.13334 0.66667,8.5 0.36666,0.36667 3.96666,0.66667 8,0.66667 h 7.33333 z m 11.79832,-5.35274 0.29833,-6.194 5.60599,6.56697 c 3.34564,3.91916 6.24938,6.44414 7.20168,6.26232 l 1.59568,-0.30467 0.29044,-8.23894 0.29044,-8.23894 h -1.54044 c -1.21609,0 -1.54044,1.26332 -1.54044,6 0,3.3 -0.3375,5.99832 -0.75,5.99627 -0.4125,-0.002 -2.93077,-2.70206 -5.59616,-6 -3.49252,-4.32139 -5.5176,-5.99627 -7.25,-5.99627 h -2.40384 v 7.83333 c 0,4.30834 0.30937,8.14271 0.6875,8.52084 1.72025,1.72025 2.83627,-0.50651 3.11082,-6.20691 z m 38.3946,5.74949 c 1.57577,-0.84333 2.25438,-0.79103 2.88046,0.22198 1.17598,1.90278 2.1571,-1.01511 1.74708,-5.19589 l -0.32046,-3.26756 -3.94444,0.006 c -2.16945,0.003 -4.11945,0.5307 -4.33334,1.17236 -0.22939,0.68818 0.67064,1.16667 2.19445,1.16667 3.25919,0 3.307,1.47973 0.11537,3.57096 -5.18382,3.39657 -11.96715,-2.32713 -9.40981,-7.93989 1.54959,-3.40096 5.86921,-4.87623 9.00292,-3.07475 4.25709,2.44728 4.95205,2.69982 5.61242,2.03944 0.35823,-0.35822 -0.34868,-1.65132 -1.5709,-2.87354 -1.7106,-1.71059 -3.38693,-2.22222 -7.28103,-2.22222 h -5.05881 l -2.41341,2.80576 c -2.63339,3.0615 -3.16707,8.13923 -1.13162,10.76683 2.91077,3.75756 9.62145,5.11993 13.91112,2.82416 z m 16.80708,-7.39675 v -8.5 h -1.5 -1.5 v 8.5 8.5 h 1.5 1.5 z m 12.03938,1.75 0.0394,-6.75 6.30865,6.9153 c 4.52783,4.96323 6.77498,6.73636 7.96062,6.28139 l 1.65195,-0.63392 v -8.03139 -8.03138 h -1.95228 -1.95229 l -0.29771,6.12612 -0.29772,6.12612 -4.90621,-6.12612 c -3.49456,-4.36346 -5.58059,-6.12612 -7.25,-6.12612 h -2.34379 v 7.83333 c 0,4.30834 0.3,8.13334 0.66667,8.5 1.72024,1.72025 2.3364,0.14051 2.37271,-6.08333 z m 39.96062,5.25 c 0,-1.16667 -1.33333,-1.5 -6,-1.5 h -6 v -2.5 -2.5 h 6 c 3.33333,0 6,-0.44444 6,-1 0,-0.55556 -2.66667,-1 -6,-1 h -6 v -2.5 -2.5 h 6 c 3.33333,0 6,-0.44444 6,-1 0,-0.57778 -3.16667,-1 -7.5,-1 h -7.5 v 8.5 8.5 h 7.5 7.5 z M 300.14302,141.38957 c 1.83006,-1.13105 4.23277,-3.26938 5.33935,-4.75186 l 2.01196,-2.69541 0.0317,2.02749 c 0.0644,4.12461 2.81711,6.47251 7.58836,6.47251 h 4.4433 v -2.5 c 0,-1.77899 -0.5415,-2.5 -1.87756,-2.5 -3.51012,0 -3.98229,-2.21556 -4.3053,-20.20185 l -0.31714,-17.658696 -2.06179,-2.75793 c -1.13398,-1.51687 -3.30448,-3.68574 -4.82333,-4.81973 l -2.76154,-2.06179 h -8.67667 c -6.85555,0 -9.51622,0.43833 -12.67667,2.08841 -4.4442,2.32033 -8.45752,8.310156 -8.48355,12.661586 l -0.0165,2.75 h 2.39391 c 1.85854,0 2.92081,-1.06227 4.75,-4.75 2.82869,-5.702776 6.06033,-7.478286 13.45069,-7.390016 5.58659,0.0667 9.02462,1.31953 11.1236,4.05337 1.72255,2.243556 1.60072,9.577076 -0.18371,11.058026 -0.80604,0.66895 -6.09283,1.86303 -11.74844,2.6535 -15.4405,2.15811 -21.14912,5.67535 -22.4753,13.84765 -1.13083,6.96848 4.03261,14.85893 10.85857,16.59338 5.13943,1.3059 14.64424,0.21244 18.41601,-2.11864 z m -17.47526,-4.34278 c -5.41227,-2.99979 -6.61047,-9.83136 -2.45345,-13.98838 2.9462,-2.9462 2.87132,-2.92142 16.59338,-5.49033 l 9.75,-1.82529 v 5.61536 c 0,7.34221 -2.44791,11.86654 -8.01262,14.80923 -4.86776,2.57413 -12.09722,2.97456 -15.87731,0.87941 z m 68.16726,6.33538 c 5.01736,-1.39333 10.0328,-5.9408 12.61807,-11.44072 2.88907,-6.14624 2.73597,-7.49915 -0.84861,-7.49915 h -2.9532 l -1.91096,4.25 c -2.70606,6.01832 -6.19826,8.88472 -11.56085,9.48916 -5.84629,0.65896 -8.74184,-0.12786 -12.68701,-3.4475 -4.74682,-3.99419 -6.89085,-9.5299 -6.89085,-17.79166 0,-11.50026 5.09575,-19.407246 13.75738,-21.347126 7.89487,-1.76815 14.92131,1.67258 17.39702,8.519026 l 1.20346,3.3281 h 3.31816 3.31816 l -0.63838,-2.75 c -2.65698,-11.445566 -15.21695,-17.800946 -28.06848,-14.202746 -6.81103,1.90697 -13.65422,8.81574 -15.7335,15.884246 -6.73608,22.89929 9.1509,42.70924 29.67959,37.00837 z m 150.72267,-2.26636 c 16.66307,-8.35855 16.66307,-39.35467 0,-48.660406 l -4.5,-2.5131 -7.5,0.0232 c -5.78681,0.0179 -8.45758,0.52973 -11.69207,2.24077 -16.75786,8.864856 -17.40841,38.251256 -1.07453,48.538826 6.58558,4.14779 16.92825,4.30261 24.7666,0.37073 z m -20,-4.4682 c -1.925,-1.0542 -4.85,-4.08386 -6.5,-6.73259 l -3,-4.81588 v -8.07842 -8.07842 l 2.5,-4.41142 c 3.88627,-6.857576 6.90947,-8.588576 15,-8.588576 8.09053,0 11.11373,1.731 15,8.588576 l 2.5,4.41142 -0.0173,8 c -0.02,9.25601 -2.30097,14.81029 -7.64465,18.61533 -4.45247,3.17044 -13.07675,3.69741 -17.83804,1.08998 z m -244.75974,4.31819 c 0.60696,-3.1751 0.19099,-3.5235 -4.20693,-3.5235 -1.99833,0 -4.17333,-0.54 -4.83333,-1.2 -0.85043,-0.85043 -1.2,-6.82222 -1.2,-20.5 V 96.442304 h 5 5 v -3 -3 h -5 -5 v -7.5 -7.5 h -3.5 -3.5 v 7.5 7.5 h -4.5 -4.5 v 3 3 h 4.5 4.5 v 19.549656 19.54966 l 1.55236,3.00193 c 1.85872,3.59438 4.38896,4.75065 10.58106,4.83536 l 4.63343,0.0634 z m 15.75974,-15.0235 0.5,-17 1.77789,-3.25427 c 2.17189,-3.97545 7.93071,-7.877566 12.97211,-8.789776 l 3.75,-0.67853 v -2.88871 -2.88871 h -3.09887 c -4.38402,0 -9.60665,2.73518 -12.72884,6.6663 l -2.67229,3.364666 -0.5,-4.765486 -0.5,-4.76548 h -3 -3 l -0.26798,24.981956 c -0.14738,13.74008 -0.0374,25.58272 0.24432,26.31697 0.30198,0.78696 1.64357,1.20489 3.26797,1.01804 l 2.75569,-0.31697 z m 123.78545,7.31344 0.28544,-9.68656 5.02273,-4.20526 c 3.88685,-3.25426 5.29226,-3.93582 6.21455,-3.01381 0.65551,0.6553 5.46683,6.90663 10.69183,13.89183 l 9.5,12.70036 h 3.25 c 1.7875,0 3.24728,-0.45 3.24395,-1 -0.003,-0.55 -4.95333,-7.81318 -11,-16.14039 -6.04667,-8.32722 -10.99395,-15.35805 -10.99395,-15.62408 0,-0.26602 4.6125,-4.42077 10.25,-9.23277 5.6375,-4.812006 10.4,-9.143676 10.58333,-9.625926 0.18334,-0.48226 -1.39166,-0.86789 -3.5,-0.85697 l -3.83333,0.0199 -12,10.542836 c -6.6,5.79855 -13.2375,11.44526 -14.75,12.54823 l -2.75,2.0054 v -22.068086 -22.0681 h -3 -3 v 35.333326 c 0,19.43334 0.31898,35.65232 0.70885,36.04219 0.38987,0.38986 1.62737,0.57736 2.75,0.41666 l 2.04115,-0.29218 z m 67.21455,7.18656 v -3 h -4.39301 c -3.08336,0 -4.57397,-0.47156 -5,-1.58179 -0.33385,-0.86998 -0.60699,-10.09498 -0.60699,-20.5 V 96.442304 h 5 5 v -3 -3 h -5 -5 v -7.5 -7.5 h -3.5 -3.5 v 7.5 7.5 h -4.5 -4.5 v 3 3 h 4.5 4.5 l 0.0147,19.749996 c 0.0158,21.16893 0.50112,23.68671 5.00497,25.96555 1.36416,0.69023 4.61779,1.2616 7.23029,1.26971 l 4.75004,0.0147 z m 13.76673,-23.81461 0.26673,-26.314596 -3.26673,0.31461 -3.26673,0.3146 -0.26798,24.981956 c -0.14738,13.74008 -0.0374,25.58272 0.24432,26.31697 0.30198,0.78696 1.64357,1.20489 3.26797,1.01804 l 2.75569,-0.31697 z m 68.38553,9.06461 0.37528,-17.75 2.05485,-3.94331 c 3.66938,-7.041636 10.05091,-9.966796 18.13713,-8.313666 3.04937,0.6234 4.8512,1.74926 6.49737,4.0598 l 2.27785,3.197176 0.50263,20 0.50263,20 2.75,0.31642 2.75,0.31642 v -20.75069 -20.7507 l -1.97876,-4.087566 c -2.26343,-4.67563 -5.90809,-7.18233 -11.81654,-8.12713 -7.24233,-1.1581 -12.56301,0.26627 -17.6189,4.71665 l -4.5858,4.03658 v -4.08499 -4.08499 h -3 -3 v 25.833326 c 0,14.20834 0.3,26.13334 0.66667,26.5 0.36666,0.36667 1.66648,0.66667 2.88849,0.66667 h 2.22182 z M 457.55769,76.442304 v -5 h -3.5 -3.5 v 5 5 h 3.5 3.5 z M 262.15598,53.349964 c 3.0151,-2.83253 3.25122,-8.63699 0.49006,-12.04687 l -1.91164,-2.36079 h -5.98337 c -8.78598,0 -12.51533,4.4093 -9.95101,11.7653 2.0135,5.77594 12.34597,7.34901 17.35596,2.64236 z m -10.89071,-0.55289 c -1.47519,-0.77293 -2.96249,-2.52223 -3.30511,-3.88733 -0.72466,-2.88728 1.58808,-7.01227 4.43881,-7.91706 2.8389,-0.90103 7.03351,1.08072 8.33542,3.93809 2.45802,5.39476 -3.97949,10.74261 -9.46912,7.8663 z m -27.70758,-0.23094 v -2.87617 l 5.53519,-0.45902 c 6.27308,-0.52021 7.71481,-1.50854 7.71481,-5.28864 0,-3.91755 -1.37196,-4.70421 -9.1784,-5.26276 l -7.0716,-0.50597 v 8.63437 8.63436 h 1.5 c 0.98565,0 1.5,-0.98624 1.5,-2.87617 z m 0,-8.62383 v -2.60958 l 4.75,0.30479 4.75,0.30479 v 2 2 l -4.75,0.30479 -4.75,0.3048 z m 58.54255,6.25 c 0.93681,-2.8875 2.02886,-5.60838 2.42679,-6.04641 0.59829,-0.6586 2.65845,3.86256 4.60981,10.11655 0.22655,0.72608 1.3701,1.17608 2.54122,1 1.66544,-0.2504 2.72588,-2.01398 4.86782,-8.09557 2.51072,-7.12866 2.52819,-9.77977 0.0544,-8.25087 -0.52659,0.32545 -1.71089,3.27701 -2.63178,6.55902 -0.92091,3.282 -1.97842,5.96728 -2.35004,5.96728 -0.37163,0 -1.57533,-2.8125 -2.6749,-6.25 -2.74213,-8.57252 -4.97852,-8.57523 -7.81753,-0.01 -1.13759,3.43229 -2.34654,6.24479 -2.68656,6.25 -0.34003,0.005 -1.38306,-2.71636 -2.31786,-6.04794 -1.485,-5.29253 -3.66768,-8.17216 -5.10489,-6.73494 -0.44602,0.44601 3.82304,13.82171 5.03973,15.79036 0.3406,0.5511 1.45655,1.002 2.47989,1.002 1.3616,0 2.31744,-1.40806 3.5639,-5.25 z m 39.95745,4.25 c 0.38803,-0.62784 -1.82295,-1 -5.94098,-1 h -6.55902 v -2.5 -2.5 h 6.08333 c 8.07801,0 7.72908,-2.36935 -0.41233,-2.7999 l -5.671,-0.2999 v -1.9501 -1.9501 h 6 c 4.66667,0 6,-0.33333 6,-1.5 v -1.5 h -7.5 -7.5 v 8.5 8.5 h 7.44098 c 4.09254,0 7.7191,-0.45 8.05902,-1 z m 11.68664,-2.25 0.31336,-3.25 2.70055,-0.31165 c 3.86535,-0.44607 6.79945,1.42968 6.79945,4.34684 0,1.79815 0.54095,2.46481 2,2.46481 2.43837,0 2.77854,-4.0786 0.52788,-6.32926 l -1.47212,-1.47212 1.47212,-1.22175 c 1.902,-1.57853 1.88205,-4.39177 -0.0425,-5.98899 -0.83304,-0.69135 -4.65804,-1.48192 -8.5,-1.75681 l -6.98538,-0.4998 v 8.63437 c 0,6.83908 0.29871,8.63436 1.43664,8.63436 0.88988,0 1.5559,-1.23689 1.75,-3.25 z m -0.18664,-8.25 v -2.60958 l 4.75,0.30479 4.75,0.30479 v 2 2 l -4.75,0.30479 -4.75,0.3048 z m 38,10.5 c 0,-0.55555 -2.66667,-1 -6,-1 h -6 v -2.5 -2.5 h 5.5 c 4.22222,0 5.5,-0.34848 5.5,-1.5 0,-1.15151 -1.27778,-1.5 -5.5,-1.5 h -5.5 v -2 -2 h 6.08333 c 4.42223,0 5.96956,-0.34132 5.66667,-1.25 -0.2834,-0.85018 -2.78889,-1.25 -7.83333,-1.25 h -7.41667 l -0.29044,8.25 -0.29044,8.25 h 8.04044 c 4.69363,0 8.04044,-0.41624 8.04044,-1 z m 23.96104,-1.18856 c 2.55176,-2.73899 2.70034,-8.77665 0.28896,-11.74163 -1.39027,-1.70943 -3.24032,-2.27592 -9,-2.75582 l -7.25,-0.60406 v 8.64504 8.64503 h 6.96104 6.96105 z m -12.29437,-0.4781 c -0.36667,-0.36667 -0.66667,-3.06667 -0.66667,-6 v -5.33334 h 4.34501 c 6.7897,0 9.68984,4.64984 6.09829,9.7775 -1.14139,1.62955 -2.56429,2.2225 -5.33334,2.2225 -2.07714,0 -4.07663,-0.3 -4.44329,-0.66666 z m 51.7619,1.09523 c 1.66321,-1.6632 2.07455,-4.59106 0.82143,-5.84681 -0.4125,-0.41337 -0.75,-2.36796 -0.75,-4.34353 v -3.59195 l -3.33734,-0.87436 c -1.83554,-0.4809 -5.43554,-0.73881 -8,-0.57314 l -4.66266,0.30122 -0.29044,8.25 -0.29044,8.25 h 7.46901 c 5.45668,0 7.89239,-0.42338 9.04044,-1.57143 z m -12.42857,-2.87378 v -2.55479 h 5.06955 5.06955 l -0.31955,2.25 -0.31955,2.25 -4.75,0.30479 -4.75,0.3048 z m 0,-7.55479 v -2.10958 l 4.75,0.30479 c 3.42009,0.21946 4.75,0.72476 4.75,1.80479 0,1.08003 -1.32991,1.58534 -4.75,1.80479 l -4.75,0.3048 z m 31,8.88398 c 0,-1.98632 1.26891,-4.84463 3.5,-7.88398 3.92057,-5.34088 4.14096,-6 2.00627,-6 -0.82155,0 -2.82114,1.83245 -4.44354,4.07211 l -2.94982,4.0721 -2.30645,-3.56778 c -2.16878,-3.35479 -5.3087,-5.40752 -6.47996,-4.23626 -0.28752,0.28752 1.09639,2.64332 3.07537,5.2351 2.48007,3.24806 3.59813,5.75522 3.59813,8.06854 v 3.35619 h 2 c 1.5721,0 2,-0.66666 2,-3.11602 z"
       id="path1" />
  </g>
</svg>
