<svg width="48" height="48" viewBox="0 0 48 48" fill="none" xmlns="http://www.w3.org/2000/svg">
<g clip-path="url(#clip0_48_313)">
<path d="M18.8252 6.45C22.243 6.45005 25.1319 7.64787 27.5205 10.0525C29.9102 12.4584 31.0996 15.3508 31.0996 18.7576C31.0996 20.1303 30.8756 21.4555 30.4277 22.7352C29.9808 24.012 29.3092 25.2127 28.4092 26.3377L28.1289 26.6883L28.4482 27.0047L41.291 39.7508L39.7998 41.242L26.6748 28.117L26.3223 28.4217C25.3717 29.2455 24.26 29.8913 22.9814 30.3553C21.7075 30.8175 20.3483 31.0496 18.9004 31.0496C15.4248 31.0496 12.501 29.851 10.0996 27.4471C7.69592 25.0408 6.5 22.1506 6.5 18.7498C6.50005 15.3493 7.69726 12.4598 10.1035 10.0535C12.5093 7.64772 15.4072 6.45 18.8252 6.45ZM18.8496 8.45C15.9826 8.45009 13.5295 9.46014 11.5195 11.4715C9.51093 13.4815 8.50005 15.9168 8.5 18.7498C8.5 21.5829 9.51091 24.0181 11.5195 26.0281C13.5296 28.0396 15.9826 29.0495 18.8496 29.0496C21.6908 29.0496 24.1219 28.0383 26.1123 26.0262C28.1005 24.0158 29.0996 21.5811 29.0996 18.7498C29.0996 15.9185 28.1006 13.4838 26.1123 11.4734C24.1219 9.46134 21.6908 8.45 18.8496 8.45ZM23.2998 17.7V19.7H14.25V17.7H23.2998Z" fill="black" stroke="white"/>
</g>
<defs>
<clipPath id="clip0_48_313">
<rect width="48" height="48" fill="white"/>
</clipPath>
</defs>
</svg>
