<svg width="48" height="48" viewBox="0 0 48 48" fill="none" xmlns="http://www.w3.org/2000/svg">
<path d="M32.147 40C30.549 40 29.1917 39.4407 28.075 38.322C26.9583 37.2033 26.4 35.845 26.4 34.247C26.4 32.649 26.9445 31.2917 28.0335 30.175C29.1222 29.0583 30.4443 28.5 32 28.5C32.5323 28.5 33.0403 28.55 33.524 28.65C34.008 28.75 34.4667 28.9167 34.9 29.15V12H44V15.55H37.9V34.3C37.9 35.8833 37.3407 37.2292 36.222 38.3375C35.1033 39.4458 33.745 40 32.147 40ZM6 32V29H21.3V32H6ZM6 23.5V20.5H29.65V23.5H6ZM6 15V12H29.65V15H6Z" fill="#B3B3B3"/>
</svg>
