<svg width="48" height="48" viewBox="0 0 48 48" fill="none" xmlns="http://www.w3.org/2000/svg">
<g clip-path="url(#clip0_96_148)">
<path d="M10.3622 2.3125C9.69506 2.3125 9.15939 2.50034 8.72845 2.96094C8.27629 3.44439 7.99582 4.13541 7.81537 4.89355C7.63287 5.66038 7.54134 6.54991 7.50385 7.48047C7.42892 9.34052 7.56898 11.4379 7.68549 13.1787C7.69466 13.3148 7.70381 13.4501 7.71283 13.585L7.78607 14.6846L8.56537 13.9053C9.86991 12.6004 11.1155 10.986 11.8867 9.28906C12.656 7.59583 12.9786 5.7599 12.331 4.06641C12.1436 3.57653 11.8759 3.15114 11.5507 2.84082C11.2276 2.53252 10.8179 2.31263 10.3622 2.3125ZM8.43939 37.1982L7.97845 37.1621C5.64405 36.9806 3.73129 35.9799 2.39935 34.2617C1.2193 32.7392 0.54933 30.6887 0.533142 28.4727V28.4482L0.530212 28.4238C0.447688 27.6385 0.169323 22.5706 5.8974 16.4824L6.03802 16.332L6.03314 16.126C6.0105 15.2845 5.94536 14.3079 5.87787 13.2998C5.72839 11.0659 5.57316 8.73 5.73529 6.64844C5.89842 4.55451 6.37659 2.82351 7.40521 1.72363C8.14869 0.928708 9.16173 0.5 10.3622 0.5C11.1434 0.5001 11.9078 0.780165 12.5742 1.3291C13.1869 1.83352 13.692 2.55343 14.0234 3.41992C15.099 6.23308 14.4828 11.0781 9.00482 15.9854C8.58532 16.361 8.14034 16.7799 7.68744 17.2393L7.66986 17.2578L7.65424 17.2773C7.61772 17.3226 7.57679 17.3646 7.53217 17.4023L7.51263 17.418L7.49506 17.4365C5.68408 19.31 3.75311 21.8363 2.82513 24.7734C2.33696 26.3185 2.2978 27.4554 2.31439 27.9639L2.3349 28.2549C2.34175 28.2999 2.34465 28.3453 2.34467 28.3906C2.34467 29.9112 2.73003 31.6026 3.69037 32.9482C4.60359 34.2279 6.01834 35.1653 8.02533 35.3477L8.43451 35.374C9.96776 35.4318 11.4357 34.8588 12.5663 33.7705C13.767 32.6147 14.454 30.9965 14.454 29.3281C14.454 28.1374 14.1717 27.1487 13.4921 26.5215C12.7236 25.8119 11.6721 25.7655 11.0136 25.8184C10.0907 25.8924 9.42105 26.4823 9.00092 27.1553C8.58251 27.8257 8.36722 28.6417 8.36713 29.3281C8.36713 29.8286 7.96136 30.2344 7.46088 30.2344C6.96041 30.2344 6.55463 29.8286 6.55463 29.3281C6.55472 28.1502 6.94762 26.9128 7.62885 25.9463C8.39381 24.8609 9.45392 24.2005 10.6318 24.0381L10.8691 24.0117C12.4253 23.8877 13.7822 24.3223 14.7216 25.1895C15.9785 26.3496 16.2667 28.0419 16.2665 29.3281C16.2665 31.4857 15.3758 33.5828 13.8232 35.0771C12.8956 35.97 11.7982 36.5925 10.6181 36.9209L10.2519 37.0234V43.3408C10.2519 44.7094 9.91741 45.7397 9.31732 46.459C8.76211 47.1245 7.96763 47.4999 7.13959 47.5C5.77909 47.5 4.84287 46.5933 4.84271 45.5713C4.84271 45.0708 5.24848 44.665 5.74896 44.665C6.16279 44.6651 6.51312 44.943 6.62103 45.3232L6.71576 45.6562L7.06049 45.6846C7.21427 45.6972 7.41394 45.6745 7.61224 45.5635C7.89436 45.4053 8.09666 45.1053 8.2265 44.7549C8.36043 44.3932 8.43939 43.9235 8.43939 43.3408V37.1982Z" stroke="#B3B3B3"/>
<path d="M17.5139 10.873H46.593C47.0934 10.8731 47.4993 11.2787 47.4993 11.7792V38.1347C47.4991 38.635 47.0933 39.0408 46.593 39.041H41.4592V38.9394H37.1584L37.0686 38.9755C36.9633 39.0177 36.8499 39.041 36.7317 39.041C36.6136 39.0409 36.5001 39.0178 36.3948 38.9755L36.3059 38.9394H17.5901C17.0897 38.9394 16.684 38.5335 16.6838 38.0331C16.6838 37.5327 17.0896 37.1269 17.5901 37.1269H35.8254V32.3759H20.9944C20.494 32.3759 20.0882 31.97 20.0881 31.4697C20.0881 30.9692 20.4939 30.5635 20.9944 30.5634H35.8254V25.8124H20.3293C19.8289 25.8124 19.4231 25.4066 19.4231 24.9062C19.4231 24.4057 19.8289 23.9999 20.3293 23.9999H35.8254V19.249H17.5139C17.0134 19.249 16.6077 18.8432 16.6077 18.3427C16.6077 17.8422 17.0134 17.4365 17.5139 17.4365H35.8254V12.6855H17.5139C17.0134 12.6855 16.6077 12.2797 16.6077 11.7792C16.6077 11.2788 17.0134 10.873 17.5139 10.873ZM37.6379 37.1269H41.4592V32.3759H37.6379V37.1269ZM37.6379 30.5634H41.4592V25.8124H37.6379V30.5634ZM37.6379 23.9999H41.4592V19.249H37.6379V23.9999ZM37.6379 17.4365H41.4592V12.6855H37.6379V17.4365Z" stroke="#B3B3B3"/>
</g>
<defs>
<clipPath id="clip0_96_148">
<rect width="48" height="48" fill="white"/>
</clipPath>
</defs>
</svg>
