<svg width="24" height="24" viewBox="0 0 24 24" fill="none" xmlns="http://www.w3.org/2000/svg">
<g clip-path="url(#clip0_100_296)">
<path d="M7.74774 1.5C8.60415 1.50003 9.27675 1.94809 9.76141 2.50391H9.76239C10.2351 3.04627 10.6025 3.76787 10.902 4.55762C11.5037 6.14452 11.9482 8.33128 12.2878 10.8389C12.6208 13.2973 13.0362 15.2646 13.5388 16.5898C13.7915 17.2562 14.0372 17.6806 14.2458 17.9199L14.3718 18.0469C14.406 18.0755 14.433 18.092 14.4509 18.1016C14.4672 18.1102 14.4771 18.1132 14.4811 18.1143C14.4847 18.1151 14.487 18.1152 14.488 18.1152C14.686 18.1151 15.0098 18.0007 15.4274 17.3311C15.8396 16.67 16.19 15.6907 16.4675 14.5293C17.0183 12.2228 17.1979 9.55454 17.1979 8.24121V7.74121H19.5593V8.24121C19.5592 9.68724 19.3692 12.5522 18.7634 15.0889C18.4624 16.3489 18.0381 17.619 17.4255 18.6016C16.8208 19.5711 15.8699 20.4998 14.488 20.5C13.6314 20.5 12.958 20.052 12.4733 19.4961C12.0005 18.9538 11.6332 18.2321 11.3337 17.4424C10.732 15.8556 10.2875 13.6695 9.94794 11.1621C9.61488 8.70351 9.1995 6.73552 8.69696 5.41016C8.44436 4.74399 8.19843 4.31942 7.98993 4.08008C7.89005 3.9655 7.82055 3.9175 7.78485 3.89844C7.76763 3.88924 7.7573 3.88667 7.7536 3.88574C7.7502 3.88489 7.74872 3.88477 7.74774 3.88477C7.54981 3.88477 7.22616 3.99885 6.80829 4.66895C6.39602 5.33007 6.04469 6.30914 5.76727 7.4707C5.21643 9.77723 5.03781 12.4456 5.03778 13.7588V14.2588H2.67645V13.7588C2.67648 12.3128 2.8665 9.44789 3.47235 6.91113C3.77333 5.65101 4.19754 4.38104 4.81024 3.39844C5.41494 2.42873 6.36559 1.5 7.74774 1.5Z" fill="white" stroke="white"/>
<path fill-rule="evenodd" clip-rule="evenodd" d="M5.08235 13.2234H0V11.3175H5.08235V13.2234Z" fill="white"/>
<path fill-rule="evenodd" clip-rule="evenodd" d="M10.1647 13.2235H7.62354V11.3176H10.1647V13.2235Z" fill="white"/>
<path fill-rule="evenodd" clip-rule="evenodd" d="M17.7882 13.2235H15.247V11.3176H17.7882V13.2235Z" fill="white"/>
<path fill-rule="evenodd" clip-rule="evenodd" d="M25.4118 13.2235H20.3294V11.3176H25.4118V13.2235Z" fill="white"/>
</g>
<defs>
<clipPath id="clip0_100_296">
<rect width="24" height="24" fill="white"/>
</clipPath>
</defs>
</svg>
